# xmcd
#
# Track frame offsets:
#	150
#	16740
#	34277
#	51752
#	68381
#	83017
#	100988
#	119089
#	136617
#	154669
#	174538
#	196734
#	211355
#	229702
#	247510
#	265103
#	282925
#	304134
#	322590
#	337998
#
# Disc length: 4711 seconds
#
# Revision: 1
# Processed by: cddbd v1.5.2PL0 Copyright (c) Steve Scherf et al.
# Submitted via: audiograbber 1.83.01
#
DISCID=fa126514
DTITLE=Taylor Swift - Greatest Hits
DYEAR=2015
DGENRE=Country Pop
TTITLE0=Shake It Off
TTITLE1=Blank Space
TTITLE2=Style
TTITLE3=I Knew You Were Trouble
TTITLE4=We Are Never Ever Getting Back Together
TTITLE5=Begin Again
TTITLE6=Ours
TTITLE7=Mine
TTITLE8=Mean
TTITLE9=Sparks Fly
TTITLE10=Back To December (Acoustic)
TTITLE11=Crazier
TTITLE12=Today Was A Fairy Tale
TTITLE13=Love Story
TTITLE14=You Belong With Me
TTITLE15=White Horse
TTITLE16=Change
TTITLE17=Should've Said No
TTITLE18=Our Song (Radio Edit)
TTITLE19=Teardrops On My Guitar (Radio Edit)
EXTD=
EXTT0=
EXTT1=
EXTT2=
EXTT3=
EXTT4=
EXTT5=
EXTT6=
EXTT7=
EXTT8=
EXTT9=
EXTT10=
EXTT11=
EXTT12=
EXTT13=
EXTT14=
EXTT15=
EXTT16=
EXTT17=
EXTT18=
EXTT19=
PLAYORDER=
